<svg width="112" height="24" viewBox="0 0 112 24" fill="none" xmlns="http://www.w3.org/2000/svg">
<path fill-rule="evenodd" clip-rule="evenodd" d="M18.8891 24H2.24319C1.94263 24 1.64648 23.9441 1.36691 23.8365C1.10834 23.7289 0.860812 23.5794 0.658593 23.3803C0.453059 23.1781 0.290621 22.9414 0.169068 22.6821C0.054146 22.4207 0 22.1378 0 21.8484C0 20.6209 0.995095 19.6258 2.2226 19.6258H10.4622L0.577297 17.1885C0.280106 17.1152 0.103795 16.8091 0.189502 16.5153C0.27104 16.2357 0.56016 16.0717 0.84194 16.1452L12.3519 19.1471L2.14585 13.4106C1.83443 13.2355 1.72819 12.8384 1.91061 12.5313C2.08696 12.2343 2.46805 12.1324 2.76914 12.3016L13.0017 18.0519L4.6761 9.94751C4.41778 9.69605 4.41776 9.28103 4.67607 9.02955C4.92475 8.78744 5.32102 8.78743 5.56971 9.02953L16.4549 19.6258H18.8891C20.0648 19.6258 21.1743 19.3353 22.0649 18.5629C23.1048 17.6614 23.4672 16.4027 23.4672 15.0795V8.90116C23.4672 7.579 23.1092 6.30849 22.0638 5.41019C21.1809 4.65175 20.0438 4.39249 18.8891 4.39249H11.4622C10.9099 4.39249 10.4622 4.8402 10.4622 5.39249V6.92823C10.4622 8.13205 9.45111 9.11533 8.21569 9.11533C6.97917 9.11533 5.96918 8.13098 5.96918 6.92823V2.1516C5.96918 1.86328 6.02222 1.57927 6.14046 1.31463C6.25649 1.05536 6.42003 0.82191 6.62667 0.620736C6.8311 0.421713 7.07641 0.271101 7.34272 0.16137C7.61566 0.0559415 7.91292 0 8.21238 0H18.8891C20.1035 0 21.2936 0.197947 22.4296 0.621812C23.5136 1.02739 24.4816 1.62446 25.3181 2.40871C26.1845 3.21987 26.8331 4.18271 27.2917 5.26388C27.7867 6.43435 28 7.6769 28 8.93989V15.0407C28 16.3059 27.7867 17.5431 27.2917 18.7168C26.8353 19.7958 26.1845 20.7575 25.3181 21.5655C24.4783 22.3486 23.5103 22.9522 22.4274 23.3664C21.2947 23.7988 20.1068 24 18.8891 24Z" fill="#52AAFF"/>
<path d="M32.4499 14.773H39.6661C39.9608 14.773 40.2533 14.716 40.5308 14.5966C40.7975 14.489 41.0427 14.3362 41.247 14.1329C41.4481 13.9307 41.6019 13.6908 41.7137 13.4293C41.8288 13.1582 41.8869 12.8785 41.8869 12.5827C41.8869 12.2879 41.8267 12.0018 41.7127 11.7285C41.5987 11.4574 41.4438 11.2089 41.2481 11.0013C41.0405 10.7936 40.791 10.6376 40.5232 10.5215C40.2533 10.4042 39.9608 10.3418 39.6661 10.3418H32.4499C31.8315 10.3418 31.3056 10.5408 30.8701 10.9808C30.6625 11.1906 30.5087 11.4434 30.3958 11.7242C30.2797 11.9964 30.2227 12.2879 30.2227 12.5827C30.2227 12.8775 30.2775 13.1572 30.398 13.4315C30.5076 13.6961 30.6657 13.9307 30.8679 14.1318C31.3089 14.5697 31.8294 14.773 32.4499 14.773Z" fill="#FAFAFA"/>
<path d="M50.3572 23.9989C50.6551 23.9989 50.9455 23.9451 51.223 23.8354C51.4768 23.7343 51.7134 23.5944 51.9059 23.3986C52.1005 23.2007 52.2489 22.9705 52.3511 22.7123C52.4597 22.4412 52.5081 22.1572 52.5081 21.8656C52.5081 21.5751 52.4608 21.2965 52.35 21.0222C52.2511 20.764 52.1016 20.537 51.9016 20.3348C51.7134 20.1357 51.4843 19.9851 51.224 19.8818C50.9466 19.7667 50.6573 19.714 50.3572 19.714C49.4549 19.714 48.6957 19.3751 48.6247 18.3671V2.19033C48.6247 1.89986 48.5645 1.62123 48.4483 1.36196C48.3203 1.09301 48.1537 0.854184 47.9493 0.644404C47.7353 0.441078 47.4847 0.287238 47.204 0.174279C46.933 0.0570173 46.6405 0 46.3458 0C45.7619 0 45.279 0.210857 44.8736 0.6401C44.4466 1.07257 44.252 1.58358 44.252 2.19033V18.2595C44.252 19.0578 44.3993 19.8324 44.7273 20.5607C45.0446 21.2642 45.4844 21.8774 46.0565 22.3971C46.6287 22.9177 47.2922 23.3072 48.0149 23.5794C48.7656 23.8623 49.555 23.9989 50.3572 23.9989Z" fill="#FAFAFA"/>
<path d="M57.2846 4.71214C57.6019 4.71214 57.9084 4.6562 58.2009 4.53141C58.487 4.40984 58.7408 4.23664 58.9602 4.0161C59.4172 3.55458 59.6581 3.01561 59.6581 2.3626C59.6581 1.70206 59.428 1.15233 58.9612 0.686505C58.7419 0.467042 58.4881 0.29599 58.2084 0.178728C57.9127 0.0625413 57.603 0.0012207 57.2846 0.0012207C56.6361 0.0012207 56.0855 0.228214 55.6274 0.686505C55.1606 1.1534 54.9111 1.69883 54.9111 2.3626C54.9111 2.67135 54.9821 2.97043 55.1015 3.24798C55.2316 3.53737 55.4037 3.79126 55.6274 4.01503C56.0866 4.47439 56.634 4.71214 57.2846 4.71214Z" fill="#FAFAFA"/>
<path d="M57.2853 23.999C57.5757 23.999 57.8553 23.9452 58.1253 23.8247C58.3855 23.715 58.6167 23.5579 58.8157 23.3589C59.0168 23.1577 59.1717 22.92 59.2835 22.651C59.3986 22.3939 59.4556 22.1164 59.4556 21.8345V8.96686C59.4556 8.67532 59.4083 8.39131 59.2964 8.11698C59.1975 7.85771 59.0491 7.62964 58.8544 7.436C58.6533 7.23482 58.4156 7.07991 58.1478 6.96803C57.8844 6.85292 57.6112 6.7959 57.323 6.7959C57.0219 6.7959 56.7347 6.85507 56.4551 6.97018C56.1916 7.07883 55.9453 7.23267 55.7367 7.4403C55.5248 7.6404 55.3614 7.87923 55.242 8.14495C55.1248 8.40422 55.0635 8.68177 55.0635 8.96686V21.8345C55.0635 22.1153 55.1259 22.3939 55.242 22.6499C55.3614 22.9146 55.5248 23.1534 55.7421 23.3589C55.9421 23.559 56.1809 23.7139 56.44 23.8247C56.7078 23.9409 56.9928 23.999 57.2853 23.999Z" fill="#FAFAFA"/>
<path fill-rule="evenodd" clip-rule="evenodd" d="M74.583 23.3169C73.5032 23.773 72.3762 23.999 71.2029 23.999C70.0339 23.999 68.9004 23.7784 67.8238 23.3234C66.7602 22.8715 65.8128 22.2368 64.9944 21.4214C64.177 20.607 63.5339 19.6743 63.0811 18.6103C62.6219 17.5302 62.4004 16.3995 62.4004 15.2247V2.28611C62.4004 1.9752 62.4563 1.6686 62.5757 1.38029C62.6875 1.10919 62.8435 0.855298 63.0457 0.641214C63.2425 0.444343 63.4801 0.291579 63.7458 0.182924C64.0222 0.0645857 64.3082 0.00756836 64.6029 0.00756836C64.9008 0.00756836 65.1879 0.0667373 65.4632 0.181848C65.7278 0.291579 65.9676 0.444343 66.172 0.647669C66.3634 0.852071 66.5118 1.10058 66.6129 1.37061C66.7226 1.66322 66.7731 1.97413 66.7731 2.28611V8.57846L67.2786 7.97278C67.7034 7.46286 68.3798 7.11968 68.9864 6.87977C69.693 6.60114 70.4404 6.41826 71.2029 6.41826C72.3751 6.41826 73.5032 6.6431 74.583 7.10031C75.6434 7.54784 76.5876 8.17611 77.3985 8.99372C78.2137 9.81455 78.8428 10.7645 79.2934 11.8306C79.7516 12.9139 79.9753 14.05 79.9753 15.2247C79.9753 16.3952 79.7548 17.5259 79.2999 18.6049C78.8503 19.6689 78.2148 20.6059 77.3996 21.4224C76.5855 22.2368 75.6444 22.8683 74.583 23.3169ZM69.5059 19.2665C70.0479 19.4935 70.6157 19.6064 71.2029 19.6064C71.7912 19.6064 72.3644 19.4935 72.9064 19.2665C73.4334 19.046 73.9033 18.7318 74.3066 18.3284C74.7164 17.9185 75.0379 17.4505 75.2627 16.9159C75.4896 16.3769 75.6025 15.81 75.6025 15.2247C75.6025 14.6395 75.4896 14.0715 75.2627 13.5325C75.039 12.9989 74.7153 12.5288 74.3066 12.12C73.9055 11.7187 73.4312 11.4078 72.9064 11.1883C72.3644 10.9613 71.7912 10.8484 71.2029 10.8484C70.6157 10.8484 70.0479 10.9613 69.5059 11.1883C68.981 11.4089 68.5078 11.7198 68.1024 12.1178C67.6959 12.532 67.3679 13.001 67.1388 13.5293C66.9054 14.0693 66.7914 14.6363 66.7914 15.2247C66.7914 15.8121 66.9054 16.3801 67.1388 16.9191C67.369 17.4495 67.6927 17.9196 68.1003 18.3284C68.5046 18.7329 68.9778 19.0449 69.5059 19.2665Z" fill="#FAFAFA"/>
<path d="M84.6757 23.999C85.2693 23.999 85.7673 23.7946 86.1878 23.3772C86.3846 23.1824 86.5373 22.9587 86.6448 22.7112C86.7567 22.4348 86.8083 22.1443 86.8083 21.8474V15.796C86.8212 15.158 86.9535 14.5481 87.2062 13.9618C87.4546 13.3851 87.8074 12.8677 88.2483 12.4201C88.6828 11.9801 89.1861 11.6251 89.7518 11.3755C90.3304 11.1206 90.9369 10.9893 91.5746 10.9764H91.6897C91.9919 10.9764 92.2941 10.9226 92.5748 10.8118C92.849 10.7042 93.0996 10.5526 93.3083 10.3546C93.7427 9.92106 93.9675 9.40683 93.9675 8.79254C93.9675 8.1901 93.803 7.64789 93.3728 7.21757C92.9222 6.76574 92.3113 6.62158 91.6897 6.62158H91.5435C90.3454 6.64525 89.1893 6.88838 88.0891 7.35958C87.0115 7.82325 86.049 8.46765 85.2123 9.28849C84.3649 10.1212 83.7024 11.0894 83.2163 12.1738C82.7281 13.2636 82.4721 14.4125 82.4355 15.5991V21.8474C82.4355 22.1378 82.4904 22.4154 82.6119 22.679C82.7334 22.9425 82.9066 23.1738 83.112 23.3772C83.3163 23.5783 83.554 23.7279 83.8143 23.8344C84.0928 23.9419 84.3767 23.999 84.6757 23.999Z" fill="#FAFAFA"/>
<path fill-rule="evenodd" clip-rule="evenodd" d="M103.112 23.9999C108.021 23.9999 112 20.0688 112 15.2195C112 10.3701 108.021 6.43896 103.112 6.43896C98.2023 6.43896 94.2227 10.3701 94.2227 15.2195C94.2227 20.0688 98.2023 23.9999 103.112 23.9999ZM101.292 19.539C101.869 19.7794 102.478 19.9025 103.104 19.9025C103.739 19.9025 104.355 19.7794 104.942 19.539C105.516 19.3054 106.026 18.9718 106.464 18.5358C106.902 18.0998 107.245 17.5947 107.485 17.0264C107.73 16.4489 107.852 15.8426 107.852 15.2167C107.852 14.5909 107.731 13.9834 107.485 13.4071C107.246 12.8387 106.902 12.3325 106.464 11.8965C106.027 11.4628 105.513 11.1326 104.942 10.9002C104.355 10.6609 103.739 10.5367 103.104 10.5367C102.478 10.5367 101.869 10.6609 101.292 10.9002C100.726 11.1361 100.213 11.4651 99.7792 11.8965C99.3394 12.3337 98.9946 12.8364 98.7446 13.4024C98.49 13.9777 98.3708 14.5874 98.3708 15.2167C98.3708 15.8449 98.49 16.4546 98.7446 17.0298C98.9946 17.5959 99.3394 18.0986 99.7792 18.5358C100.214 18.9684 100.724 19.302 101.292 19.539Z" fill="#FAFAFA"/>
</svg>
